# xmcd CD Database Entry
#
# Track frame offsets:
# 150
# 15700
# 32904
# 52492
# 70426
# 88994
# 102767
# 118465
# 134558
# 148408
# 169702
# 190865
# 199263
# 216424
# 235511
# 251743
# 271357
#
# Disc length: 3841 seconds
#
# Revision: 2
# Processed by: cddbd v1.4PL0 Copyright (c) Steve Scherf et al.
# Submitted via: tcd 2.0b
#
DISCID=190eff11
DTITLE=NOA - Blue touches blue
DYEAR=1900
DGENRE=
TTITLE0=If I give you everything
TTITLE1=Can I reach you
TTITLE2=Explain the night
TTITLE3=Home-made religion
TTITLE4=Wrap it up with love
TTITLE5=Angel
TTITLE6=Haunted
TTITLE7=Again and again
TTITLE8=Long coat in winter
TTITLE9=Blue touches blue
TTITLE10=Carefully
TTITLE11=Dala dala
TTITLE12=Morning (boker)
TTITLE13=The beauty of that
TTITLE14=Beautiful that way
TTITLE15=Uno queriendo ser dos
TTITLE16=La vida es bella
EXTD=
EXTT0=
EXTT1=
EXTT2=
EXTT3=
EXTT4=
EXTT5=
EXTT6=
EXTT7=
EXTT8=
EXTT9=
EXTT10=
EXTT11=
EXTT12=
EXTT13=
EXTT14=
EXTT15=
EXTT16=
PLAYORDER=
